<svg xmlns="http://www.w3.org/2000/svg" viewBox="0 0 128 128"><defs><linearGradient id="a" x1="69.85" y1="117.16" x2="54.14" y2="6.31" gradientUnits="userSpaceOnUse"><stop offset="0" stop-color="#3c6eb4"/><stop offset="1" stop-color="#294172"/></linearGradient></defs><path fill="url(#a)" d="M91.22 100.63c6.16 7.14 13.73 11.22 18.82 10.22 3.32-.66 5.73-2.75 7.05-6.34 1.54-4.18.44-8.56-2.72-11.48-3.63-3.35-8.83-4.29-13.86-3.75-3.74.4-7.56 1.6-10.83 3.24-.4-2.83-.88-5.62-1.54-8.35 6.31-3.54 10.91-8.67 12.94-14.44 2.52-7.17.52-14.31-4.45-18.23-5.38-4.24-12.63-5.07-19.16-3.54-7.95 1.87-14.54 6.86-18.22 14.19-3.45 6.88-3.72 14.31-1.83 20.83-3.27 2.3-5.71 5.3-6.9 8.81-.73 2.16-.87 4.43-.45 6.67.43 2.32 1.52 4.5 3.14 6.34 3.31 3.76 8.16 5.68 13.27 5.68 3.12 0 6.16-.61 8.94-1.71 5.52 3.77 9.78 6.37 9.31 6.37-3.84-.03-9.39-1.72-15.13-5.68 2.61-.89 5.12-2.01 7.49-3.37 1.84 3.72 4.47 6.95 8.01 9.09-1.11.86-2.18 1.78-3.18 2.78z"/><path fill="#fff" d="M67.12 100.72c-1.51-3.53-3.61-6.67-6.27-9.35-3.54-3.57-7.68-6.4-12.26-8.32-5.82-2.44-12.03-3.3-18.25-2.55-5.91.71-11.53 2.85-16.4 6.15-4.4 2.99-8.15 6.89-10.86 11.45-2.43 4.08-3.92 8.55-4.38 13.12-.47 4.68.22 9.44 2.03 13.87 1.78 4.36 4.4 8.26 7.7 11.43 3.27 3.14 7.17 5.55 11.44 7.03 4.08 1.41 8.4 2.09 12.77 2 4.37-.09 8.7-.94 12.83-2.51 3.86-1.47 7.45-3.5 10.65-6.01 2.9-2.27 5.47-5.02 7.6-8.13 1.95-2.84 3.54-5.95 4.71-9.22.21-2.53.31-5.08.27-7.62-.06-3.54-.47-7.06-1.23-10.5-.81-3.67-2.02-7.24-3.6-10.64h.01zm-1.41 17.27c.58 3.29.78 6.63.6 9.96-.2 3.73-.91 7.41-2.11 10.94-1.14 3.36-2.66 6.56-4.53 9.53-1.71 2.71-3.69 5.17-5.88 7.33-2.31 2.28-4.91 4.22-7.72 5.74-2.73 1.48-5.64 2.53-8.65 3.11-3.03.58-6.12.79-9.2.62-3.08-.17-6.13-.71-9.1-1.6-2.83-.85-5.55-1.99-8.12-3.38-2.42-1.31-4.7-2.87-6.8-4.63-1.9-1.59-3.65-3.38-5.22-5.33-1.47-1.82-2.77-3.79-3.88-5.87-1.05-1.97-1.91-4.04-2.57-6.18-.63-2.03-1.08-4.12-1.35-6.24-.25-2.01-.35-4.04-.29-6.07.06-2.03.28-4.05.64-6.04.34-1.9.79-3.77 1.35-5.6.54-1.76 1.19-3.48 1.93-5.14.72-1.62 1.53-3.2 2.41-4.73.86-1.49 1.8-2.93 2.8-4.31 1.01-1.39 2.08-2.73 3.22-4.01 1.16-1.3 2.39-2.54 3.67-3.72 1.3-1.2 2.65-2.34 4.04-3.41 1.42-1.09 2.89-2.11 4.41-3.04 1.55-.95 3.15-1.82 4.79-2.59 1.67-.78 3.38-1.48 5.13-2.08 1.79-.62 3.61-1.14 5.46-1.55 1.89-.42 3.8-.75 5.74-.97 1.97-.22 3.96-.34 5.95-.35 1.99.01 3.98.22 5.95.62 1.93.39 3.83.88 5.69 1.47 1.83.58 3.62 1.26 5.36 2.02 1.71.75 3.37 1.58 4.97 2.5 1.57.9 3.08 1.89 4.52 2.95 1.42 1.04 2.77 2.16 4.05 3.35 1.26 1.17 2.45 2.42 3.57 3.73 1.1 1.29 2.14 2.64 3.1 4.04.95 1.38 1.82 2.82 2.62 4.3.78 1.45 1.5 2.94 2.14 4.45.63 1.48 1.19 3 1.69 4.55.49 1.52.91 3.07 1.27 4.65.35 1.55.64 3.12.87 4.71.23 1.58.4 3.17.52 4.77l.01.03z"/></svg>